<mxfile host="app.diagrams.net" modified="2021-01-07T08:51:36.036Z" agent="5.0 (Windows NT 10.0; Win64; x64) AppleWebKit/537.36 (KHTML, like Gecko) Chrome/81.0.4044.92 Safari/537.36" etag="gZqRNsECpkhCdKyPNui_" version="14.1.2" type="github">
  <diagram id="W-E8cIjQM36mwO9_U0tl" name="第 1 页">
    <mxGraphModel dx="772" dy="433" grid="1" gridSize="10" guides="1" tooltips="1" connect="1" arrows="1" fold="1" page="1" pageScale="1" pageWidth="827" pageHeight="1169" math="0" shadow="0">
      <root>
        <mxCell id="0" />
        <mxCell id="1" parent="0" />
        <mxCell id="q-bFgWGt56W3-2PYsqPj-3" value="end" style="strokeWidth=2;html=1;shape=mxgraph.flowchart.terminator;whiteSpace=wrap;" parent="1" vertex="1">
          <mxGeometry x="290" y="540" width="100" height="60" as="geometry" />
        </mxCell>
        <mxCell id="q-bFgWGt56W3-2PYsqPj-11" style="edgeStyle=orthogonalEdgeStyle;rounded=0;orthogonalLoop=1;jettySize=auto;html=1;" parent="1" source="q-bFgWGt56W3-2PYsqPj-6" target="q-bFgWGt56W3-2PYsqPj-3" edge="1">
          <mxGeometry relative="1" as="geometry" />
        </mxCell>
        <mxCell id="q-bFgWGt56W3-2PYsqPj-6" value="do something" style="rounded=1;whiteSpace=wrap;html=1;absoluteArcSize=1;arcSize=14;strokeWidth=2;" parent="1" vertex="1">
          <mxGeometry x="275" y="460" width="130" height="50" as="geometry" />
        </mxCell>
        <mxCell id="q-bFgWGt56W3-2PYsqPj-10" style="edgeStyle=orthogonalEdgeStyle;rounded=0;orthogonalLoop=1;jettySize=auto;html=1;" parent="1" target="q-bFgWGt56W3-2PYsqPj-6" edge="1">
          <mxGeometry relative="1" as="geometry">
            <mxPoint x="340" y="420" as="sourcePoint" />
          </mxGeometry>
        </mxCell>
      </root>
    </mxGraphModel>
  </diagram>
</mxfile>
